<svg width="16" height="23" viewBox="0 0 16 23" fill="none" xmlns="http://www.w3.org/2000/svg">
<path d="M15.085 4.3159L6.75005 0.938855V0.728655C6.75005 0.336694 6.47052 0.0195312 6.12506 0.0195312C5.7796 0.0195312 5.50007 0.336694 5.50007 0.728655V1.47976V19.1662C5.50007 19.5581 5.7796 19.8753 6.12506 19.8753C6.47052 19.8753 6.75005 19.5581 6.75005 19.1662V18.457C10.0307 18.457 11.7501 19.5111 11.7501 19.8753C11.7501 20.2396 10.0307 21.2935 6.75005 21.2935C3.46939 21.2935 1.75004 20.2396 1.75004 19.8753C1.75004 19.6198 2.61353 19.0309 4.25005 18.6985V17.2533C2.184 17.6207 0.500061 18.4712 0.500061 19.8753C0.500061 21.824 3.73982 22.7118 6.75005 22.7118C9.76028 22.7118 13 21.824 13 19.8753C13 17.9266 9.76028 17.0387 6.75005 17.0387V10.3858L15.1546 5.61782C15.3786 5.49042 15.5141 5.22445 15.4989 4.94056C15.4836 4.65727 15.3212 4.41144 15.085 4.3159ZM6.75005 8.79992V2.44418L13.2857 5.09217L6.75005 8.79992Z" fill="#78828A"/>
</svg>
